<?xml version="1.0" encoding="utf-8" ?>
<svg baseProfile="full" height="500px" version="1.1" width="1000px" xmlns="http://www.w3.org/2000/svg" xmlns:ev="http://www.w3.org/2001/xml-events" xmlns:xlink="http://www.w3.org/1999/xlink"><defs /><image height="50" preserveAspectRatio="none" width="50" x="0" xlink:href="./b_se.svg" y="0" /><image height="50" preserveAspectRatio="none" width="50" x="0" xlink:href="./w_sw.svg" y="50" /><image height="50" preserveAspectRatio="none" width="50" x="0" xlink:href="./w_ne.svg" y="100" /><image height="50" preserveAspectRatio="none" width="50" x="0" xlink:href="./w_se.svg" y="150" /><image height="50" preserveAspectRatio="none" width="50" x="0" xlink:href="./b_sw.svg" y="200" /><image height="50" preserveAspectRatio="none" width="50" x="0" xlink:href="./w_sw.svg" y="250" /><image height="50" preserveAspectRatio="none" width="50" x="0" xlink:href="./w_nw.svg" y="300" /><image height="50" preserveAspectRatio="none" width="50" x="0" xlink:href="./b_nw.svg" y="350" /><image height="50" preserveAspectRatio="none" width="50" x="0" xlink:href="./w_ne.svg" y="400" /><image height="50" preserveAspectRatio="none" width="50" x="0" xlink:href="./b_ne.svg" y="450" /><image height="50" preserveAspectRatio="none" width="50" x="50" xlink:href="./b_nw.svg" y="0" /><image height="50" preserveAspectRatio="none" width="50" x="50" xlink:href="./w_ne.svg" y="50" /><image height="50" preserveAspectRatio="none" width="50" x="50" xlink:href="./w_sw.svg" y="100" /><image height="50" preserveAspectRatio="none" width="50" x="50" xlink:href="./b_se.svg" y="150" /><image height="50" preserveAspectRatio="none" width="50" x="50" xlink:href="./w_sw.svg" y="200" /><image height="50" preserveAspectRatio="none" width="50" x="50" xlink:href="./w_ne.svg" y="250" /><image height="50" preserveAspectRatio="none" width="50" x="50" xlink:href="./w_se.svg" y="300" /><image height="50" preserveAspectRatio="none" width="50" x="50" xlink:href="./b_se.svg" y="350" /><image height="50" preserveAspectRatio="none" width="50" x="50" xlink:href="./b_ne.svg" y="400" /><image height="50" preserveAspectRatio="none" width="50" x="50" xlink:href="./w_ne.svg" y="450" /><image height="50" preserveAspectRatio="none" width="50" x="100" xlink:href="./w_sw.svg" y="0" /><image height="50" preserveAspectRatio="none" width="50" x="100" xlink:href="./w_nw.svg" y="50" /><image height="50" preserveAspectRatio="none" width="50" x="100" xlink:href="./w_se.svg" y="100" /><image height="50" preserveAspectRatio="none" width="50" x="100" xlink:href="./w_ne.svg" y="150" /><image height="50" preserveAspectRatio="none" width="50" x="100" xlink:href="./b_nw.svg" y="200" /><image height="50" preserveAspectRatio="none" width="50" x="100" xlink:href="./w_nw.svg" y="250" /><image height="50" preserveAspectRatio="none" width="50" x="100" xlink:href="./w_sw.svg" y="300" /><image height="50" preserveAspectRatio="none" width="50" x="100" xlink:href="./w_ne.svg" y="350" /><image height="50" preserveAspectRatio="none" width="50" x="100" xlink:href="./w_se.svg" y="400" /><image height="50" preserveAspectRatio="none" width="50" x="100" xlink:href="./b_se.svg" y="450" /><image height="50" preserveAspectRatio="none" width="50" x="150" xlink:href="./b_nw.svg" y="0" /><image height="50" preserveAspectRatio="none" width="50" x="150" xlink:href="./w_ne.svg" y="50" /><image height="50" preserveAspectRatio="none" width="50" x="150" xlink:href="./w_sw.svg" y="100" /><image height="50" preserveAspectRatio="none" width="50" x="150" xlink:href="./b_se.svg" y="150" /><image height="50" preserveAspectRatio="none" width="50" x="150" xlink:href="./b_ne.svg" y="200" /><image height="50" preserveAspectRatio="none" width="50" x="150" xlink:href="./b_sw.svg" y="250" /><image height="50" preserveAspectRatio="none" width="50" x="150" xlink:href="./b_nw.svg" y="300" /><image height="50" preserveAspectRatio="none" width="50" x="150" xlink:href="./w_nw.svg" y="350" /><image height="50" preserveAspectRatio="none" width="50" x="150" xlink:href="./b_ne.svg" y="400" /><image height="50" preserveAspectRatio="none" width="50" x="150" xlink:href="./b_sw.svg" y="450" /><image height="50" preserveAspectRatio="none" width="50" x="200" xlink:href="./w_sw.svg" y="0" /><image height="50" preserveAspectRatio="none" width="50" x="200" xlink:href="./w_nw.svg" y="50" /><image height="50" preserveAspectRatio="none" width="50" x="200" xlink:href="./w_se.svg" y="100" /><image height="50" preserveAspectRatio="none" width="50" x="200" xlink:href="./w_ne.svg" y="150" /><image height="50" preserveAspectRatio="none" width="50" x="200" xlink:href="./w_se.svg" y="200" /><image height="50" preserveAspectRatio="none" width="50" x="200" xlink:href="./b_se.svg" y="250" /><image height="50" preserveAspectRatio="none" width="50" x="200" xlink:href="./w_sw.svg" y="300" /><image height="50" preserveAspectRatio="none" width="50" x="200" xlink:href="./w_ne.svg" y="350" /><image height="50" preserveAspectRatio="none" width="50" x="200" xlink:href="./b_nw.svg" y="400" /><image height="50" preserveAspectRatio="none" width="50" x="200" xlink:href="./w_nw.svg" y="450" /><image height="50" preserveAspectRatio="none" width="50" x="250" xlink:href="./b_sw.svg" y="0" /><image height="50" preserveAspectRatio="none" width="50" x="250" xlink:href="./w_se.svg" y="50" /><image height="50" preserveAspectRatio="none" width="50" x="250" xlink:href="./w_nw.svg" y="100" /><image height="50" preserveAspectRatio="none" width="50" x="250" xlink:href="./b_ne.svg" y="150" /><image height="50" preserveAspectRatio="none" width="50" x="250" xlink:href="./w_nw.svg" y="200" /><image height="50" preserveAspectRatio="none" width="50" x="250" xlink:href="./w_se.svg" y="250" /><image height="50" preserveAspectRatio="none" width="50" x="250" xlink:href="./b_sw.svg" y="300" /><image height="50" preserveAspectRatio="none" width="50" x="250" xlink:href="./w_sw.svg" y="350" /><image height="50" preserveAspectRatio="none" width="50" x="250" xlink:href="./b_se.svg" y="400" /><image height="50" preserveAspectRatio="none" width="50" x="250" xlink:href="./b_nw.svg" y="450" /><image height="50" preserveAspectRatio="none" width="50" x="300" xlink:href="./b_se.svg" y="0" /><image height="50" preserveAspectRatio="none" width="50" x="300" xlink:href="./b_ne.svg" y="50" /><image height="50" preserveAspectRatio="none" width="50" x="300" xlink:href="./w_ne.svg" y="100" /><image height="50" preserveAspectRatio="none" width="50" x="300" xlink:href="./w_se.svg" y="150" /><image height="50" preserveAspectRatio="none" width="50" x="300" xlink:href="./w_ne.svg" y="200" /><image height="50" preserveAspectRatio="none" width="50" x="300" xlink:href="./w_sw.svg" y="250" /><image height="50" preserveAspectRatio="none" width="50" x="300" xlink:href="./w_nw.svg" y="300" /><image height="50" preserveAspectRatio="none" width="50" x="300" xlink:href="./b_nw.svg" y="350" /><image height="50" preserveAspectRatio="none" width="50" x="300" xlink:href="./b_sw.svg" y="400" /><image height="50" preserveAspectRatio="none" width="50" x="300" xlink:href="./b_ne.svg" y="450" /><image height="50" preserveAspectRatio="none" width="50" x="350" xlink:href="./b_nw.svg" y="0" /><image height="50" preserveAspectRatio="none" width="50" x="350" xlink:href="./w_ne.svg" y="50" /><image height="50" preserveAspectRatio="none" width="50" x="350" xlink:href="./w_sw.svg" y="100" /><image height="50" preserveAspectRatio="none" width="50" x="350" xlink:href="./w_nw.svg" y="150" /><image height="50" preserveAspectRatio="none" width="50" x="350" xlink:href="./b_ne.svg" y="200" /><image height="50" preserveAspectRatio="none" width="50" x="350" xlink:href="./w_ne.svg" y="250" /><image height="50" preserveAspectRatio="none" width="50" x="350" xlink:href="./b_nw.svg" y="300" /><image height="50" preserveAspectRatio="none" width="50" x="350" xlink:href="./w_nw.svg" y="350" /><image height="50" preserveAspectRatio="none" width="50" x="350" xlink:href="./w_sw.svg" y="400" /><image height="50" preserveAspectRatio="none" width="50" x="350" xlink:href="./w_ne.svg" y="450" /><image height="50" preserveAspectRatio="none" width="50" x="400" xlink:href="./b_se.svg" y="0" /><image height="50" preserveAspectRatio="none" width="50" x="400" xlink:href="./b_ne.svg" y="50" /><image height="50" preserveAspectRatio="none" width="50" x="400" xlink:href="./b_sw.svg" y="100" /><image height="50" preserveAspectRatio="none" width="50" x="400" xlink:href="./b_nw.svg" y="150" /><image height="50" preserveAspectRatio="none" width="50" x="400" xlink:href="./b_sw.svg" y="200" /><image height="50" preserveAspectRatio="none" width="50" x="400" xlink:href="./w_sw.svg" y="250" /><image height="50" preserveAspectRatio="none" width="50" x="400" xlink:href="./w_nw.svg" y="300" /><image height="50" preserveAspectRatio="none" width="50" x="400" xlink:href="./w_se.svg" y="350" /><image height="50" preserveAspectRatio="none" width="50" x="400" xlink:href="./b_sw.svg" y="400" /><image height="50" preserveAspectRatio="none" width="50" x="400" xlink:href="./w_sw.svg" y="450" /><image height="50" preserveAspectRatio="none" width="50" x="450" xlink:href="./w_se.svg" y="0" /><image height="50" preserveAspectRatio="none" width="50" x="450" xlink:href="./b_sw.svg" y="50" /><image height="50" preserveAspectRatio="none" width="50" x="450" xlink:href="./b_ne.svg" y="100" /><image height="50" preserveAspectRatio="none" width="50" x="450" xlink:href="./b_se.svg" y="150" /><image height="50" preserveAspectRatio="none" width="50" x="450" xlink:href="./b_ne.svg" y="200" /><image height="50" preserveAspectRatio="none" width="50" x="450" xlink:href="./w_ne.svg" y="250" /><image height="50" preserveAspectRatio="none" width="50" x="450" xlink:href="./b_nw.svg" y="300" /><image height="50" preserveAspectRatio="none" width="50" x="450" xlink:href="./b_se.svg" y="350" /><image height="50" preserveAspectRatio="none" width="50" x="450" xlink:href="./b_ne.svg" y="400" /><image height="50" preserveAspectRatio="none" width="50" x="450" xlink:href="./w_ne.svg" y="450" /><image height="50" preserveAspectRatio="none" width="50" x="500" xlink:href="./w_sw.svg" y="0" /><image height="50" preserveAspectRatio="none" width="50" x="500" xlink:href="./b_se.svg" y="50" /><image height="50" preserveAspectRatio="none" width="50" x="500" xlink:href="./w_se.svg" y="100" /><image height="50" preserveAspectRatio="none" width="50" x="500" xlink:href="./b_sw.svg" y="150" /><image height="50" preserveAspectRatio="none" width="50" x="500" xlink:href="./w_se.svg" y="200" /><image height="50" preserveAspectRatio="none" width="50" x="500" xlink:href="./w_nw.svg" y="250" /><image height="50" preserveAspectRatio="none" width="50" x="500" xlink:href="./b_ne.svg" y="300" /><image height="50" preserveAspectRatio="none" width="50" x="500" xlink:href="./b_sw.svg" y="350" /><image height="50" preserveAspectRatio="none" width="50" x="500" xlink:href="./b_nw.svg" y="400" /><image height="50" preserveAspectRatio="none" width="50" x="500" xlink:href="./b_se.svg" y="450" /><image height="50" preserveAspectRatio="none" width="50" x="550" xlink:href="./w_se.svg" y="0" /><image height="50" preserveAspectRatio="none" width="50" x="550" xlink:href="./b_sw.svg" y="50" /><image height="50" preserveAspectRatio="none" width="50" x="550" xlink:href="./b_ne.svg" y="100" /><image height="50" preserveAspectRatio="none" width="50" x="550" xlink:href="./w_nw.svg" y="150" /><image height="50" preserveAspectRatio="none" width="50" x="550" xlink:href="./w_sw.svg" y="200" /><image height="50" preserveAspectRatio="none" width="50" x="550" xlink:href="./b_sw.svg" y="250" /><image height="50" preserveAspectRatio="none" width="50" x="550" xlink:href="./w_se.svg" y="300" /><image height="50" preserveAspectRatio="none" width="50" x="550" xlink:href="./b_se.svg" y="350" /><image height="50" preserveAspectRatio="none" width="50" x="550" xlink:href="./w_sw.svg" y="400" /><image height="50" preserveAspectRatio="none" width="50" x="550" xlink:href="./w_ne.svg" y="450" /><image height="50" preserveAspectRatio="none" width="50" x="600" xlink:href="./b_ne.svg" y="0" /><image height="50" preserveAspectRatio="none" width="50" x="600" xlink:href="./b_se.svg" y="50" /><image height="50" preserveAspectRatio="none" width="50" x="600" xlink:href="./w_se.svg" y="100" /><image height="50" preserveAspectRatio="none" width="50" x="600" xlink:href="./b_sw.svg" y="150" /><image height="50" preserveAspectRatio="none" width="50" x="600" xlink:href="./b_nw.svg" y="200" /><image height="50" preserveAspectRatio="none" width="50" x="600" xlink:href="./b_se.svg" y="250" /><image height="50" preserveAspectRatio="none" width="50" x="600" xlink:href="./w_sw.svg" y="300" /><image height="50" preserveAspectRatio="none" width="50" x="600" xlink:href="./w_ne.svg" y="350" /><image height="50" preserveAspectRatio="none" width="50" x="600" xlink:href="./b_nw.svg" y="400" /><image height="50" preserveAspectRatio="none" width="50" x="600" xlink:href="./w_nw.svg" y="450" /><image height="50" preserveAspectRatio="none" width="50" x="650" xlink:href="./w_se.svg" y="0" /><image height="50" preserveAspectRatio="none" width="50" x="650" xlink:href="./w_ne.svg" y="50" /><image height="50" preserveAspectRatio="none" width="50" x="650" xlink:href="./w_sw.svg" y="100" /><image height="50" preserveAspectRatio="none" width="50" x="650" xlink:href="./b_se.svg" y="150" /><image height="50" preserveAspectRatio="none" width="50" x="650" xlink:href="./b_ne.svg" y="200" /><image height="50" preserveAspectRatio="none" width="50" x="650" xlink:href="./b_sw.svg" y="250" /><image height="50" preserveAspectRatio="none" width="50" x="650" xlink:href="./w_se.svg" y="300" /><image height="50" preserveAspectRatio="none" width="50" x="650" xlink:href="./w_nw.svg" y="350" /><image height="50" preserveAspectRatio="none" width="50" x="650" xlink:href="./w_sw.svg" y="400" /><image height="50" preserveAspectRatio="none" width="50" x="650" xlink:href="./w_ne.svg" y="450" /><image height="50" preserveAspectRatio="none" width="50" x="700" xlink:href="./b_se.svg" y="0" /><image height="50" preserveAspectRatio="none" width="50" x="700" xlink:href="./w_sw.svg" y="50" /><image height="50" preserveAspectRatio="none" width="50" x="700" xlink:href="./w_ne.svg" y="100" /><image height="50" preserveAspectRatio="none" width="50" x="700" xlink:href="./b_nw.svg" y="150" /><image height="50" preserveAspectRatio="none" width="50" x="700" xlink:href="./b_sw.svg" y="200" /><image height="50" preserveAspectRatio="none" width="50" x="700" xlink:href="./b_ne.svg" y="250" /><image height="50" preserveAspectRatio="none" width="50" x="700" xlink:href="./b_se.svg" y="300" /><image height="50" preserveAspectRatio="none" width="50" x="700" xlink:href="./w_se.svg" y="350" /><image height="50" preserveAspectRatio="none" width="50" x="700" xlink:href="./w_ne.svg" y="400" /><image height="50" preserveAspectRatio="none" width="50" x="700" xlink:href="./w_sw.svg" y="450" /><image height="50" preserveAspectRatio="none" width="50" x="750" xlink:href="./b_sw.svg" y="0" /><image height="50" preserveAspectRatio="none" width="50" x="750" xlink:href="./w_se.svg" y="50" /><image height="50" preserveAspectRatio="none" width="50" x="750" xlink:href="./b_se.svg" y="100" /><image height="50" preserveAspectRatio="none" width="50" x="750" xlink:href="./b_ne.svg" y="150" /><image height="50" preserveAspectRatio="none" width="50" x="750" xlink:href="./b_se.svg" y="200" /><image height="50" preserveAspectRatio="none" width="50" x="750" xlink:href="./b_nw.svg" y="250" /><image height="50" preserveAspectRatio="none" width="50" x="750" xlink:href="./w_ne.svg" y="300" /><image height="50" preserveAspectRatio="none" width="50" x="750" xlink:href="./w_sw.svg" y="350" /><image height="50" preserveAspectRatio="none" width="50" x="750" xlink:href="./w_nw.svg" y="400" /><image height="50" preserveAspectRatio="none" width="50" x="750" xlink:href="./b_nw.svg" y="450" /><image height="50" preserveAspectRatio="none" width="50" x="800" xlink:href="./b_ne.svg" y="0" /><image height="50" preserveAspectRatio="none" width="50" x="800" xlink:href="./w_nw.svg" y="50" /><image height="50" preserveAspectRatio="none" width="50" x="800" xlink:href="./b_nw.svg" y="100" /><image height="50" preserveAspectRatio="none" width="50" x="800" xlink:href="./b_sw.svg" y="150" /><image height="50" preserveAspectRatio="none" width="50" x="800" xlink:href="./w_se.svg" y="200" /><image height="50" preserveAspectRatio="none" width="50" x="800" xlink:href="./b_se.svg" y="250" /><image height="50" preserveAspectRatio="none" width="50" x="800" xlink:href="./w_sw.svg" y="300" /><image height="50" preserveAspectRatio="none" width="50" x="800" xlink:href="./w_ne.svg" y="350" /><image height="50" preserveAspectRatio="none" width="50" x="800" xlink:href="./w_se.svg" y="400" /><image height="50" preserveAspectRatio="none" width="50" x="800" xlink:href="./w_nw.svg" y="450" /><image height="50" preserveAspectRatio="none" width="50" x="850" xlink:href="./w_ne.svg" y="0" /><image height="50" preserveAspectRatio="none" width="50" x="850" xlink:href="./b_nw.svg" y="50" /><image height="50" preserveAspectRatio="none" width="50" x="850" xlink:href="./w_nw.svg" y="100" /><image height="50" preserveAspectRatio="none" width="50" x="850" xlink:href="./w_sw.svg" y="150" /><image height="50" preserveAspectRatio="none" width="50" x="850" xlink:href="./w_nw.svg" y="200" /><image height="50" preserveAspectRatio="none" width="50" x="850" xlink:href="./b_nw.svg" y="250" /><image height="50" preserveAspectRatio="none" width="50" x="850" xlink:href="./b_sw.svg" y="300" /><image height="50" preserveAspectRatio="none" width="50" x="850" xlink:href="./b_ne.svg" y="350" /><image height="50" preserveAspectRatio="none" width="50" x="850" xlink:href="./w_nw.svg" y="400" /><image height="50" preserveAspectRatio="none" width="50" x="850" xlink:href="./w_se.svg" y="450" /><image height="50" preserveAspectRatio="none" width="50" x="900" xlink:href="./b_se.svg" y="0" /><image height="50" preserveAspectRatio="none" width="50" x="900" xlink:href="./w_sw.svg" y="50" /><image height="50" preserveAspectRatio="none" width="50" x="900" xlink:href="./w_ne.svg" y="100" /><image height="50" preserveAspectRatio="none" width="50" x="900" xlink:href="./w_se.svg" y="150" /><image height="50" preserveAspectRatio="none" width="50" x="900" xlink:href="./w_ne.svg" y="200" /><image height="50" preserveAspectRatio="none" width="50" x="900" xlink:href="./w_sw.svg" y="250" /><image height="50" preserveAspectRatio="none" width="50" x="900" xlink:href="./b_se.svg" y="300" /><image height="50" preserveAspectRatio="none" width="50" x="900" xlink:href="./w_se.svg" y="350" /><image height="50" preserveAspectRatio="none" width="50" x="900" xlink:href="./b_sw.svg" y="400" /><image height="50" preserveAspectRatio="none" width="50" x="900" xlink:href="./w_sw.svg" y="450" /><image height="50" preserveAspectRatio="none" width="50" x="950" xlink:href="./b_sw.svg" y="0" /><image height="50" preserveAspectRatio="none" width="50" x="950" xlink:href="./w_se.svg" y="50" /><image height="50" preserveAspectRatio="none" width="50" x="950" xlink:href="./w_nw.svg" y="100" /><image height="50" preserveAspectRatio="none" width="50" x="950" xlink:href="./w_sw.svg" y="150" /><image height="50" preserveAspectRatio="none" width="50" x="950" xlink:href="./b_se.svg" y="200" /><image height="50" preserveAspectRatio="none" width="50" x="950" xlink:href="./b_nw.svg" y="250" /><image height="50" preserveAspectRatio="none" width="50" x="950" xlink:href="./b_sw.svg" y="300" /><image height="50" preserveAspectRatio="none" width="50" x="950" xlink:href="./w_sw.svg" y="350" /><image height="50" preserveAspectRatio="none" width="50" x="950" xlink:href="./w_nw.svg" y="400" /><image height="50" preserveAspectRatio="none" width="50" x="950" xlink:href="./b_nw.svg" y="450" /></svg>